<?xml version="1.0" encoding="UTF-8"?>
<svg id="Layer_1" xmlns="http://www.w3.org/2000/svg" version="1.1" viewBox="0 0 1024 1024">
  <!-- Generator: Adobe Illustrator 29.8.2, SVG Export Plug-In . SVG Version: 2.1.1 Build 3)  -->
  <path d="M845.81,318.18l-.28,380.84-331.53,196.47-334.52-196.48-.29-380.84,333.8-194.68,332.81,194.68ZM507,323.5c-.55,13.79.4,27.71,0,41.5h-84c-8.79,22.98-42.92,9.54-34.48-12.98,6.03-16.1,27.48-15.82,35.16-.99,22.79-.26,45.69.65,68.32-1.03v-22l-128.5-75.64-5.48,3.14c5.26,2.85,4.36,6.29,3.99,12.01-1.78,27.54-.72,55.34-1.06,83.05-.1,4.07,4.36,4.98,6.6,7.4,8.94,9.66,4.59,27.91-8.74,31.36-22.89,5.92-33.17-24.78-12.81-35.81v-91.5l-28.97,16.53-2.02,2.98-.04,71.81c28.22,16.81-5.11,52.9-23.51,27.72-7.61-10.42-1.38-22.64,8.54-28.54v-62.5c-1.58-.36-2.34.36-3.55.95-8.9,4.38-17.45,11.16-26.47,15.53l-.84,1.16-1.19,17.81.02,26.87c13.8,6.61,16.71,24.55,3.37,33.52-17.49,11.75-38.06-10.65-25.19-27.19,1.26-1.61,6.85-5.45,6.85-6.15v-35.5l-39,23.5v156.5l32.36,1.05c12.15-26.6,48.99-2.78,31.16,18.98-8.99,10.98-26.07,8.15-30.52-5.02h-33v35h126.5c10.52-18.51,39.63-9.31,35.05,12.06-3.7,17.26-28.98,19.61-34.55,2.94h-127v34h80.5c12.77-22.96,46.89-3.32,32.34,18.34-9.06,13.49-25.92,9.6-33.34-3.34h-79.5v34h127c2.64-9.16,13.48-13.62,22.23-10.72,19.47,6.46,16,34.38-3.81,36.66-7.97.92-14.91-4.48-18.91-10.94h-126.5v19l71,41v-22h102c.17,0,.32-1.77,1.44-3.02,16.84-18.92,43.27,4.13,29.56,22.52-9.34,12.53-26.31,8.91-32.5-4.5h-85.5v17c14.18,6.58,26.76,17.4,41.47,23.03l99.89.02c8.59-20.39,39.2-11.81,35.41,10.22-3.01,17.52-27.31,20.69-35.26,4.73h-74.5l59.5,36h96.5v-112c-14.99-5.19-13.97-27.64.28-33.22,19.59-7.67,35.41,17.51,19.75,30.75-3.18,2.69-6.03,1.81-6.03,6.97v122.5h-84l60.5,36.7,66.36-38.84.13-83.35c-1.86-4.4-6.05-4.83-8.39-9.61-8.71-17.8,10.53-35.2,26.34-24.34,8.19,5.62,10.57,15.97,5.91,24.79-2.07,3.91-5.97,5.93-8.85,9.15v73.5l141-84h-69.5c-.23,0-.56-.64-1-.63-1.64.05-3.98,4.74-5.46,6.17-15.58,15.01-39.15-4.94-28.68-22.68,7.66-12.98,25.93-11.49,32.62,1.65l96.54.52,5.15-1.85,31.32-19.18h-90v-36.5c-14.49-7.31-14.82-29.65,1.19-34.8,22.55-7.24,35.3,23.7,13.81,34.8v21.5h88v-85h-79c-.21,0-.47,2.54-1.54,3.95-17.69,23.38-48.76-9.87-25.8-25.78,9.63-6.67,18.79-3.2,25.89,4.81,1.11,1.25,1.27,3.02,1.44,3.02h79v-30h-145.5c-14.05,27.47-50.19.08-30.5-20.5,8.01-8.37,25.43-6.32,29,5.5h147v-33h-77.5c-6.2,9.06-15.02,15.39-26.18,10.18-12.37-5.77-14.3-24.48-2.66-32.02,10.48-6.79,21.81-2.13,27.84,7.84h78.5v-117h-171.5c-9.7,21.25-40.09,11.73-35.29-11.29,3.5-16.76,28.31-17.75,35.29-2.71h171.5l-.14-12.86-297.34-173.12c-2.22.53-4.19,1.79-6.19,2.8-8.38,4.26-20.92,11.21-28.66,16.34-1.08.72-3.6,2.12-1.64,3.33l177.05,104.02c2.26,1.27,4.41-.93,6.66-1.28,9.5-1.5,18.41,2.69,21.49,12.06,7.26,22.03-24.34,36.56-34.76,13.76-2.1-4.6-.63-7.51-2.47-11.53l-185.48-108.49-34.5,20.49,132.47,77.42c10.67-5.31,26.75-.07,28.44,12.65,3.4,25.61-30.87,31.36-36.69,7.69-.67-2.73.77-6.06-2.27-7.73l-135.94-80.13-3.73.36-27.28,16.74,125.31,74.67,3.57,3.55c.38,1.56-.88,2.4-.89,2.78ZM660.69,300.2c-6.1,1.82-7.3,13.95,2.28,15.38,11.51,1.72,10.61-19.23-2.28-15.38ZM563.69,302.19c-6.71,2-6.23,15.59,3.81,14.86,10.61-.77,8.29-18.46-3.81-14.86ZM621.68,349.23c-9.49.47-10.36,13.86-2.97,15.55,13.81,3.16,11.88-15.99,2.97-15.55ZM403.71,351.2c-6.7,1.45-6.94,12.42-.77,14.35,13.21,4.14,14.67-17.35.77-14.35ZM255.29,364.28c-5.22,6.02,2.13,18.67,10.77,11.28,8.78-7.49-4.09-18.99-10.77-11.28ZM305.73,362.15c-8.84,1.74-8.97,17.32,2.7,15.83,10.52-1.34,6.35-17.61-2.7-15.83ZM350.69,363.19c-6.69,2-6.82,15.63,3.81,14.86,10.62-.77,8.28-18.46-3.81-14.86ZM711.72,481.2c-8.26,1.84-5.58,16.8,4.56,14.63,8.68-1.86,6.86-17.17-4.56-14.63ZM262.76,497.18c-10.34,1.33-8.2,16.86,1.66,15.82s8.44-17.12-1.66-15.82ZM652.75,530.24c-.8-.84-4.93-2.3-6.25-2.31-9.83-.08-9.06,18.55,3.55,14.62,4.79-1.49,5.37-9.5,2.7-12.31ZM355.72,547.17c-7.92,1.7-8.09,15.09,1.76,15.36,11.37.31,9.16-17.7-1.76-15.36ZM719.74,574.26c-8.29-8.3-19.29,7.4-9.01,12.5,8.56,4.26,14.79-6.71,9.01-12.5ZM310.76,596.18c-12.04,1.55-6.55,20.75,4.61,14.68,7.19-3.91,3.48-15.72-4.61-14.68ZM713.76,625.18c-10.34,1.33-8.2,16.86,1.66,15.82s8.44-17.12-1.66-15.82ZM355.71,644.2c-9.06,2.03-6.71,16.6,2.54,15.62,10.35-1.1,8.61-18.11-2.54-15.62ZM525.26,681.74c7.25,7.2,18.81-5.05,10.72-12.22-7.21-6.38-18.02,4.97-10.72,12.22ZM400.71,699.21c-6.36,1.45-6.43,12.47-.77,14.34,13.85,4.58,14.96-17.59.77-14.34ZM593.74,720.74c6.69-6.7-3.66-18.39-10.71-12.21-8.19,7.18,3.35,19.57,10.71,12.21ZM647.52,707.47c-10.69-.3-9.64,14.96-.96,15.52,10.43.67,10.87-15.24.96-15.52ZM457.74,752.16c-12.27,2.33-6.19,20.59,4.63,14.7,7.41-4.04,3.32-16.21-4.63-14.7Z"/>
  <path d="M773,396v50h-88.5l-94.55,73.45-.94,2.06.14,40.34c27.5,10.93,52.09,27.97,74.85,46.65v38.5h-87.5c-21.89-27.51-69.97-27.25-92,0h-88.5v-38.5c20.39-17.78,42.66-35.21,67.32-46.71,1.17-.55,2.38-.89,3.68-.79v-45l-28.5-1c-70.41-7.09-144.77-32.28-188.32-90.68l-8.18-13.32h201v-15h330Z"/>
</svg>